<svg xmlns="http://www.w3.org/2000/svg" viewBox="0 0 1080 1080" xml:space="preserve"><rect width="100%" height="100%" fill="transparent"/><g transform="translate(540 540)"/><g transform="translate(540 540)"/><path style="stroke:none;stroke-width:1;stroke-dasharray:none;stroke-linecap:butt;stroke-dashoffset:0;stroke-linejoin:miter;stroke-miterlimit:4;fill:#1572b6;fill-rule:nonzero;opacity:1" vector-effect="non-scaling-stroke" transform="translate(540 540) scale(35.25)" d="M-10.1 11.2-12.34-14h24.68l-2.25 25.2L-.02 14l-10.08-2.8z"/><path style="stroke:none;stroke-width:1;stroke-dasharray:none;stroke-linecap:butt;stroke-dashoffset:0;stroke-linejoin:miter;stroke-miterlimit:4;fill:#33a9dc;fill-rule:nonzero;opacity:1" vector-effect="non-scaling-stroke" transform="translate(717.871 538.576) scale(35.25)" d="m-5.05 11.9 8.17-2.27L5.05-11.9h-10.1v23.8z"/><path style="stroke:none;stroke-width:1;stroke-dasharray:none;stroke-linecap:butt;stroke-dashoffset:0;stroke-linejoin:miter;stroke-miterlimit:4;fill:#fff;fill-rule:nonzero;opacity:1" vector-effect="non-scaling-stroke" transform="translate(676.6 385.196) scale(35.25)" d="M-3.88 1.58H.21L.5-1.58h-4.38v-3.09h7.76l-.08.83-.76 8.51h-6.92V1.58z"/><path style="stroke:none;stroke-width:1;stroke-dasharray:none;stroke-linecap:butt;stroke-dashoffset:0;stroke-linejoin:miter;stroke-miterlimit:4;fill:#ebebeb;fill-rule:nonzero;opacity:1" vector-effect="non-scaling-stroke" transform="translate(421.193 720.917) scale(35.25)" d="M3.39.09h-.01L-.07-.84l-.22-2.47h-3.1l.43 4.86 6.33 1.76.02-.01V.09z"/><path style="stroke:none;stroke-width:1;stroke-dasharray:none;stroke-linecap:butt;stroke-dashoffset:0;stroke-linejoin:miter;stroke-miterlimit:4;fill:#fff;fill-rule:nonzero;opacity:1" vector-effect="non-scaling-stroke" transform="translate(662.247 691.35) scale(35.25)" d="M.36-4.14-.01 0l-3.45.93v3.21l6.34-1.75.04-.53.54-6H.36z"/><path style="stroke:none;stroke-width:1;stroke-dasharray:none;stroke-linecap:butt;stroke-dashoffset:0;stroke-linejoin:miter;stroke-miterlimit:4;fill:#ebebeb;fill-rule:nonzero;opacity:1" vector-effect="non-scaling-stroke" transform="translate(403.92 274.934) scale(35.25)" d="M3.87-1.55v3.1h-7.46l-.07-.7-.14-1.57-.07-.83h7.74z"/><path style="stroke:none;stroke-width:1;stroke-dasharray:none;stroke-linecap:butt;stroke-dashoffset:0;stroke-linejoin:miter;stroke-miterlimit:4;fill:#ebebeb;fill-rule:nonzero;opacity:1" vector-effect="non-scaling-stroke" transform="translate(475.225 495.458) scale(35.25)" d="M1.84-1.55v3.1h-3.4l-.06-.7-.14-1.57-.08-.83h3.68z"/></svg>