<svg xmlns="http://www.w3.org/2000/svg" viewBox="0 0 1080 1080" xml:space="preserve"><rect width="100%" height="100%" fill="transparent"/><g transform="translate(540 540)"/><g transform="translate(540 540)"/><path style="stroke:#000;stroke-width:0;stroke-dasharray:none;stroke-linecap:butt;stroke-dashoffset:0;stroke-linejoin:miter;stroke-miterlimit:4;fill:#000;fill-rule:nonzero;opacity:1" vector-effect="non-scaling-stroke" transform="matrix(1.94 0 0 1.94 43.36 43.36)" d="M321.38.5h-83.553v127.405c-12.483-3.253-22.786-4.338-36.354-4.338-87.349 0-143.781 55.34-143.781 140.52 0 88.441 53.176 134.556 155.181 134.556 34.165 0 65.639-3.254 108.508-11.392V.5zm-83.553 328.703c-11.938 1.623-19.533 2.162-28.755 2.162-42.865 0-66.197-24.409-66.197-68.904 0-45.573 24.413-71.616 66.743-71.616 10.303 0 18.437 1.084 28.209 4.338v134.02zM454.309.949v85.726h-83.557V.949h83.557zm-83.557 128.583h83.557v193.699c0 66.735-4.889 98.743-19.537 126.417-13.56 26.59-31.466 43.403-68.365 61.852l-77.589-36.896c36.889-17.359 54.81-32.542 66.197-55.883 11.934-23.874 15.737-51.544 15.737-124.252V129.532z"/></svg>