<svg xmlns="http://www.w3.org/2000/svg" viewBox="0 0 1080 1080" xml:space="preserve"><rect width="100%" height="100%" fill="transparent"/><g transform="translate(540 540)"/><g transform="translate(540 540)"/><path style="stroke:none;stroke-width:1;stroke-dasharray:none;stroke-linecap:butt;stroke-dashoffset:0;stroke-linejoin:miter;stroke-miterlimit:4;fill:#e34f26;fill-rule:nonzero;opacity:1" vector-effect="non-scaling-stroke" transform="matrix(1.92 0 0 1.92 49.747 48.787)" d="M71 460 30 0h451l-41 460-185 52"/><path style="stroke:none;stroke-width:1;stroke-dasharray:none;stroke-linecap:butt;stroke-dashoffset:0;stroke-linejoin:miter;stroke-miterlimit:4;fill:#ef652a;fill-rule:nonzero;opacity:1" vector-effect="non-scaling-stroke" transform="matrix(1.92 0 0 1.92 50.03 48.787)" d="m256 472 149-41 35-394H256"/><path style="stroke:none;stroke-width:1;stroke-dasharray:none;stroke-linecap:butt;stroke-dashoffset:0;stroke-linejoin:miter;stroke-miterlimit:4;fill:#ebebeb;fill-rule:nonzero;opacity:1" vector-effect="non-scaling-stroke" transform="matrix(1.92 0 0 1.92 49.525 48.775)" d="M256 208h-75l-5-58h80V94H114l15 171h127zm-1 147-63-17-4-45h-56l7 89 116 32z"/><path style="stroke:none;stroke-width:1;stroke-dasharray:none;stroke-linecap:butt;stroke-dashoffset:0;stroke-linejoin:miter;stroke-miterlimit:4;fill:#fff;fill-rule:nonzero;opacity:1" vector-effect="non-scaling-stroke" transform="matrix(1.92 0 0 1.92 49.968 48.775)" d="M255 208v57h70l-7 73-63 17v59l116-32 16-174zm0-114v56h137l5-56z"/></svg>