<?xml version="1.0" encoding="UTF-8" standalone="no" ?>
<!DOCTYPE svg PUBLIC "-//W3C//DTD SVG 1.1//EN" "http://www.w3.org/Graphics/SVG/1.1/DTD/svg11.dtd">
<svg xmlns="http://www.w3.org/2000/svg" xmlns:xlink="http://www.w3.org/1999/xlink" version="1.1" width="1080" height="1080" viewBox="0 0 1080 1080" xml:space="preserve">
<desc>Created with Fabric.js 5.2.4</desc>
<defs>
</defs>
<g transform="matrix(1 0 0 1 540 540)" id="1e77607d-89ba-4e44-85ee-d65679bc44a9"  >
<rect style="stroke: none; stroke-width: 1; stroke-dasharray: none; stroke-linecap: butt; stroke-dashoffset: 0; stroke-linejoin: miter; stroke-miterlimit: 4; fill: rgb(255,255,255); fill-rule: nonzero; opacity: 1; visibility: hidden;" vector-effect="non-scaling-stroke"  x="-540" y="-540" rx="0" ry="0" width="1080" height="1080" />
</g>
<g transform="matrix(1 0 0 1 540 540)" id="51030961-6620-4568-bfc5-f27da6c6e349"  >
</g>
<g transform="matrix(2.43 0 0 2.43 540 540)"  >
<g style="" vector-effect="non-scaling-stroke"   >
		<g transform="matrix(1 0 0 1 0 0)"  >
<path style="stroke: none; stroke-width: 1; stroke-dasharray: none; stroke-linecap: butt; stroke-dashoffset: 0; stroke-linejoin: miter; stroke-miterlimit: 4; fill: rgb(19,7,84); fill-rule: nonzero; opacity: 1;" vector-effect="non-scaling-stroke"  transform=" translate(-128, -203.62)" d="M 71.4775204 24.0721657 L 115.982392 24.0721657 L 115.982392 116.481201 L 71.4775204 116.481201 L 71.4775204 24.0721657 Z M 71.4775204 213.896803 L 115.982392 213.896803 L 115.982392 306.305838 L 71.4775204 306.305838 L 71.4775204 213.896803 Z M 0 100.057444 L 44.5048712 100.057444 L 44.5048712 407.23158 L 0 407.23158 L 0 100.057444 Z M 141.495562 290.140723 L 186.000433 290.140723 L 186.000433 382.549758 L 141.495562 382.549758 L 141.495562 290.140723 Z M 141.495562 100.16829 L 186.000433 100.16829 L 186.000433 192.577326 L 141.495562 192.577326 L 141.495562 100.16829 Z M 211.495129 0 L 256 0 L 256 307.174136 L 211.495129 307.174136 L 211.495129 0 Z" stroke-linecap="round" />
</g>
		<g transform="matrix(1 0 0 1 -34.27 -38.36)"  >
<rect style="stroke: none; stroke-width: 1; stroke-dasharray: none; stroke-linecap: butt; stroke-dashoffset: 0; stroke-linejoin: miter; stroke-miterlimit: 4; fill: rgb(255,202,0); fill-rule: nonzero; opacity: 1;" vector-effect="non-scaling-stroke"  x="-22.2524356" y="-21.79981235" rx="0" ry="0" width="44.5048712" height="43.5996247" />
</g>
		<g transform="matrix(1 0 0 1 35.75 37.73)"  >
<rect style="stroke: none; stroke-width: 1; stroke-dasharray: none; stroke-linecap: butt; stroke-dashoffset: 0; stroke-linejoin: miter; stroke-miterlimit: 4; fill: rgb(231,4,136); fill-rule: nonzero; opacity: 1;" vector-effect="non-scaling-stroke"  x="-22.2524356" y="-21.79981235" rx="0" ry="0" width="44.5048712" height="43.5996247" />
</g>
</g>
</g>
</svg>