<svg xmlns="http://www.w3.org/2000/svg" viewBox="0 0 1080 1080" xml:space="preserve"><rect width="100%" height="100%" fill="transparent"/><g transform="translate(540 540)"/><g transform="translate(540 540)"/><path style="stroke:#000;stroke-width:0;stroke-dasharray:none;stroke-linecap:butt;stroke-dashoffset:0;stroke-linejoin:miter;stroke-miterlimit:4;fill:#000;fill-rule:nonzero;opacity:1" vector-effect="non-scaling-stroke" transform="translate(43.68 43.68) scale(31.02)" d="M12.172 15.43h7.61c2.116 0 3.808-1.742 3.808-3.871V4.305c0-2.067-1.742-3.617-3.809-3.961A23.495 23.495 0 0 0 15.813.03a21.73 21.73 0 0 0-3.641.313C8.945.91 8.363 2.105 8.363 4.304v2.903h7.617v.969H5.504c-2.215 0-4.156 1.328-4.762 3.863-.699 2.902-.73 4.711 0 7.742.543 2.254 1.836 3.864 4.051 3.864H7.41v-3.48c0-2.517 2.176-4.735 4.762-4.735Zm-.48-10.16c-.79 0-1.43-.645-1.43-1.446 0-.804.64-1.457 1.43-1.457.788 0 1.43.653 1.43 1.457 0 .801-.642 1.446-1.43 1.446Zm19.519 6.77c-.547-2.208-1.594-3.864-3.809-3.864h-2.859v3.383c0 2.62-2.227 4.832-4.762 4.832h-7.61c-2.085 0-3.808 1.78-3.808 3.87v7.255c0 2.066 1.793 3.28 3.809 3.87 2.41.712 4.723.84 7.61 0 1.917-.554 3.808-1.671 3.808-3.87v-2.903h-7.61v-.968h11.422c2.211 0 3.04-1.547 3.809-3.864.793-2.386.762-4.683 0-7.742ZM20.26 26.546c.79 0 1.43.648 1.43 1.45 0 .8-.64 1.456-1.43 1.456-.788 0-1.429-.656-1.429-1.457 0-.8.64-1.45 1.43-1.45Zm0 0"/></svg>